<svg xmlns="http://www.w3.org/2000/svg" width="1792" height="1792" id="battery"><path d="M1493.333 615.556v597.333H199.111V615.556h1294.222zm99.556 448h99.555V764.889h-99.555v-224q0-10.889-7-17.889T1568 516H124.444q-10.888 0-17.888 7-7 7-7 17.889v746.667q0 10.888 7 17.888 7 7 17.888 7H1568q10.889 0 17.889-7t7-17.888v-224zM1792 764.889v298.667q0 41.222-29.167 70.388-29.166 29.167-70.389 29.167v124.445q0 51.333-36.555 87.888Q1619.333 1412 1568 1412H124.444q-51.333 0-87.888-36.556Q0 1338.89 0 1287.556V540.889Q0 489.556 36.556 453q36.555-36.556 87.888-36.556H1568q51.333 0 87.889 36.556 36.555 36.556 36.555 87.889v124.444q41.223 0 70.39 29.167Q1792 723.667 1792 764.889Z" fill="#ffffff"></path></svg>